<?xml version="1.0" standalone="no"?>
<!DOCTYPE svg PUBLIC "-//W3C//DTD SVG 20010904//EN"
 "http://www.w3.org/TR/2001/REC-SVG-20010904/DTD/svg10.dtd">
<svg version="1.0" xmlns="http://www.w3.org/2000/svg"
 width="480.000000pt" height="480.000000pt" viewBox="0 0 480.000000 480.000000"
 preserveAspectRatio="xMidYMid meet">
<metadata>
Created by potrace 1.14, written by Peter Selinger 2001-2017
</metadata>
<g transform="translate(0.000000,480.000000) scale(0.100000,-0.100000)"
fill="#000000" stroke="none">
<path d="M1236 4765 c-4 -19 -4 -58 0 -86 4 -29 8 -64 9 -78 3 -41 3 -41 35
-41 17 0 30 -4 30 -10 0 -5 9 -10 20 -10 35 0 22 -18 -17 -24 -68 -11 -306
-24 -337 -18 -17 3 -42 5 -56 3 -14 -1 -121 -4 -237 -6 -206 -4 -213 -3 -213
15 0 11 4 20 9 20 4 0 8 12 7 26 -1 21 -15 36 -65 70 -89 61 -110 58 -154 -26
-25 -48 -46 -59 -81 -42 -11 6 -45 13 -75 17 -30 3 -67 9 -82 12 l-29 6 0
-143 0 -142 73 6 c130 11 180 14 332 19 83 3 158 9 168 12 9 4 17 17 17 30 0
29 15 34 113 42 61 5 81 3 87 -8 5 -8 5 -16 0 -19 -5 -3 4 -23 21 -43 17 -20
28 -41 25 -46 -6 -9 -44 -16 -140 -27 -35 -5 -51 -2 -57 7 -6 10 -9 11 -9 2 0
-7 -9 -13 -20 -13 -11 0 -20 4 -20 10 0 6 -16 8 -37 5 -21 -3 -77 -6 -125 -7
-49 0 -88 -5 -88 -9 0 -5 -9 -9 -20 -9 -11 0 -20 3 -20 8 0 4 -42 6 -93 6 -50
-1 -118 -2 -149 -3 l-58 -1 0 -113 c0 -111 0 -113 27 -129 21 -12 30 -29 40
-75 27 -124 47 -175 76 -192 18 -11 20 -11 10 0 -17 17 -17 86 0 92 9 4 9 6 0
6 -7 1 -13 6 -13 12 0 5 4 8 9 5 5 -4 11 -2 13 3 5 15 133 17 151 3 14 -12 18
-26 33 -126 3 -22 10 -50 15 -63 15 -39 11 -89 -8 -105 -15 -13 -33 -15 -108
-8 -49 5 -93 6 -97 4 -12 -8 -10 -37 8 -85 14 -40 54 -232 55 -269 0 -8 5 -26
9 -40 5 -14 12 -45 15 -70 3 -25 7 -56 8 -70 12 -91 17 -146 23 -230 8 -127 6
-116 35 -188 5 -13 9 -36 9 -52 0 -42 24 -51 124 -46 48 2 86 0 86 -5 0 -5 5
-9 10 -9 6 0 10 12 10 28 0 15 4 41 9 58 5 18 5 37 -1 47 -5 10 -11 54 -13 98
-2 45 -7 105 -11 135 -5 42 -3 59 9 72 8 9 20 36 27 60 8 32 16 42 28 40 40
-7 62 -98 82 -338 5 -63 16 -155 25 -205 17 -104 19 -171 5 -180 -18 -11 -11
-33 21 -70 39 -44 66 -46 61 -4 -1 4 -10 115 -21 248 -11 133 -24 248 -28 254
-4 7 -8 136 -9 287 -1 151 -4 286 -8 300 -8 30 -18 171 -19 253 0 71 8 79 85
74 60 -4 102 12 92 36 -3 8 10 18 32 26 27 10 33 16 23 22 -10 6 -11 9 -1 9 6
0 14 -1 17 -2 3 -2 14 12 25 30 24 38 26 108 5 136 -15 19 -15 19 -16 -5 -1
-13 -2 -31 -3 -41 -1 -9 -5 -20 -9 -24 -4 -5 -5 0 -1 11 6 15 4 17 -10 12 -9
-4 -15 -3 -11 2 3 5 2 12 -3 15 -11 6 -3 64 9 72 5 3 9 9 9 15 0 12 -27 12
-33 -1 -3 -6 -4 -5 -3 2 2 7 0 23 -5 34 -6 17 -3 23 12 27 13 4 17 10 13 22
-5 13 -9 14 -15 4 -11 -18 -18 -9 -23 27 -2 16 -1 21 1 12 2 -10 9 -18 14 -18
13 0 11 34 -3 48 -8 8 -8 12 -1 12 8 0 8 7 0 25 -7 14 -15 25 -19 25 -4 0 -5
7 -2 15 4 8 1 15 -5 15 -6 0 -11 11 -11 25 0 18 12 33 41 54 68 50 116 63 212
59 70 -2 87 0 91 12 3 11 4 11 5 -2 1 -22 21 -24 21 -3 0 11 11 14 50 11 38
-3 50 0 50 10 0 24 19 15 26 -11 3 -14 10 -25 14 -25 5 0 3 13 -3 30 -11 30
-2 55 12 32 5 -9 17 -11 34 -6 17 4 27 2 27 -5 0 -6 5 -11 10 -11 5 0 9 6 7
13 -1 9 18 12 70 12 42 0 73 -4 73 -10 0 -5 5 -3 10 7 6 10 18 14 30 11 11 -3
20 0 20 6 0 6 7 11 15 11 17 0 35 -30 35 -58 0 -28 41 -46 87 -37 21 5 42 7
47 6 5 -1 67 -4 137 -6 103 -3 130 -1 139 10 14 17 61 20 77 4 5 -5 52 -12
104 -15 86 -4 125 -4 274 0 38 1 50 -3 53 -15 2 -14 -11 -18 -85 -24 -48 -4
-122 -7 -163 -5 -41 1 -84 2 -95 1 -46 -3 -172 0 -190 5 -16 4 -17 3 -5 -6 11
-7 -39 -10 -183 -8 -108 2 -198 -1 -200 -5 -1 -5 -52 -10 -112 -10 -99 -2
-110 -4 -107 -19 4 -23 -14 -23 -26 -2 -6 11 -28 18 -62 22 -47 4 -53 3 -47
-12 4 -10 7 -24 7 -32 0 -8 5 -14 11 -14 6 0 35 -24 66 -52 30 -29 60 -55 66
-58 11 -4 54 -41 108 -92 11 -10 22 -18 26 -18 4 0 26 -21 49 -46 39 -42 71
-53 58 -19 -6 15 11 14 49 0 13 -5 17 -2 17 14 0 14 6 21 18 21 10 0 23 5 30
12 9 9 12 9 12 0 0 -7 5 -12 10 -12 6 0 10 9 10 20 0 11 5 20 11 20 5 0 7 -4
4 -10 -3 -5 1 -10 9 -10 9 0 16 -7 16 -15 0 -29 19 -14 26 20 8 45 19 44 35
-2 l13 -38 9 36 c6 28 15 38 33 42 13 2 24 0 24 -4 0 -9 140 -1 150 8 2 2 -2
9 -10 14 -11 8 -8 9 10 3 14 -3 22 -3 18 1 -11 12 11 45 30 46 10 0 12 3 5 6
-7 2 -13 9 -13 15 0 5 6 8 13 5 6 -2 20 0 29 4 14 8 19 2 29 -29 15 -51 37
-63 121 -64 63 0 73 2 89 23 16 20 20 22 29 9 5 -8 10 -18 10 -21 0 -16 33
-17 72 -3 23 8 44 11 47 6 3 -4 21 -9 39 -10 23 -2 34 3 39 15 9 27 55 62 81
63 12 0 22 4 22 8 0 14 59 10 64 -5 7 -18 35 -17 42 2 9 22 24 18 24 -5 0 -17
7 -20 39 -20 22 0 43 -5 46 -10 4 -6 11 -8 16 -5 5 4 10 1 10 -4 1 -6 2 -17 3
-23 2 -15 28 -11 38 5 9 14 27 -8 28 -33 1 -12 3 -11 11 3 10 16 12 16 40 -4
23 -16 33 -19 42 -10 6 6 25 11 41 11 23 0 47 14 91 51 33 28 62 57 64 63 2 6
15 24 27 39 13 16 24 33 24 38 0 5 10 23 21 38 39 53 32 56 -197 59 -292 5
-599 3 -661 -4 -43 -4 -53 -3 -53 10 0 8 8 15 18 15 9 1 35 4 57 7 22 3 126 7
230 10 105 2 229 8 276 14 48 6 93 8 100 5 8 -3 46 0 84 6 39 5 107 11 152 13
63 2 87 7 103 21 26 24 25 51 -3 69 -19 13 -28 13 -62 2 -58 -20 -80 -8 -79
44 0 24 7 46 15 51 22 14 85 10 99 -6 13 -16 40 -21 40 -7 0 4 14 16 31 26 29
17 29 19 15 42 -10 14 -16 46 -16 84 l0 60 -925 0 -924 0 -8 -37 c-4 -21 -7
-41 -8 -44 0 -11 -48 -71 -80 -101 -37 -35 -53 -36 -51 -3 0 14 3 25 6 25 3 0
6 36 7 80 l3 80 -239 0 -239 0 -6 -35z m434 -150 c-8 -10 -9 -15 -1 -15 6 0
10 -11 9 -25 -2 -16 -8 -25 -20 -25 -9 0 -19 -4 -22 -8 -3 -5 -18 -9 -33 -10
-16 0 -33 -1 -38 -2 -6 -2 -24 -2 -42 -1 -25 1 -31 5 -30 20 0 11 5 17 10 14
5 -3 21 9 36 26 21 24 40 33 82 39 62 10 67 8 49 -13z m-190 -77 c0 -6 -13 -8
-31 -4 -17 3 -38 6 -45 6 -8 0 -14 3 -14 8 0 4 20 6 45 4 25 -2 45 -9 45 -14z
m614 2 c29 -11 48 -42 40 -64 -5 -13 -27 -16 -129 -16 -72 0 -126 -4 -130 -10
-9 -15 -25 -12 -25 5 0 9 7 26 15 39 27 41 167 70 229 46z m-258 -117 c-11
-11 -19 6 -11 24 8 17 8 17 12 0 3 -10 2 -21 -1 -24z m-519 1 c-9 -9 -28 6
-21 18 4 6 10 6 17 -1 6 -6 8 -13 4 -17z m-143 7 c4 -5 -21 -9 -54 -9 -33 1
-63 5 -66 9 -3 5 22 9 55 9 33 0 62 -4 65 -9z"/>
<path d="M3823 4760 c0 -25 2 -35 4 -22 2 12 2 32 0 45 -2 12 -4 2 -4 -23z"/>
<path d="M3810 4678 c0 -7 5 -20 10 -28 8 -12 10 -9 10 13 0 15 -4 27 -10 27
-5 0 -10 -6 -10 -12z"/>
<path d="M4415 4449 c-4 -5 -12 -6 -18 -3 -8 5 -8 2 1 -7 9 -9 35 -12 94 -10
93 3 131 15 77 24 -54 9 -148 7 -154 -4z"/>
<path d="M4648 4451 c8 -4 41 -8 75 -8 47 0 55 2 32 7 -43 11 -123 12 -107 1z"/>
<path d="M1420 4402 c0 -12 19 -26 26 -19 2 2 -2 10 -11 17 -9 8 -15 8 -15 2z"/>
<path d="M610 4380 c0 -11 5 -20 10 -20 6 0 10 9 10 20 0 11 -4 20 -10 20 -5
0 -10 -9 -10 -20z"/>
<path d="M2168 4363 c7 -3 16 -2 19 1 4 3 -2 6 -13 5 -11 0 -14 -3 -6 -6z"/>
<path d="M2850 4360 c19 -13 30 -13 30 0 0 6 -10 10 -22 10 -19 0 -20 -2 -8
-10z"/>
<path d="M2988 4363 c7 -3 16 -2 19 1 4 3 -2 6 -13 5 -11 0 -14 -3 -6 -6z"/>
<path d="M4528 4362 c-151 -3 -145 4 -151 -172 -5 -126 -29 -269 -59 -355 -12
-35 -29 -139 -33 -208 -4 -63 -15 -119 -25 -132 -4 -5 -4 -32 0 -60 13 -75 11
-147 -4 -174 -8 -14 -12 -30 -9 -37 2 -7 -3 -26 -12 -43 -19 -38 -15 -47 25
-56 16 -4 33 -13 37 -20 5 -7 19 -15 33 -17 19 -2 24 -8 23 -25 -2 -15 13 -37
47 -70 l49 -47 88 -4 c142 -5 161 -7 166 -12 3 -3 26 -4 51 -2 l46 4 0 74 c0
73 0 74 -27 74 -14 0 -23 3 -20 7 4 3 0 15 -9 25 -14 14 -14 20 -4 33 7 8 23
15 36 15 l24 0 0 603 0 602 -77 0 c-43 0 -130 -1 -195 -3z m-33 -1056 c9 -26
7 -31 -23 -54 -19 -14 -42 -26 -52 -27 -17 -1 -18 4 -14 44 7 73 67 98 89 37z
m177 -10 c8 -12 -9 -36 -27 -36 -18 0 -38 27 -32 44 6 16 47 10 59 -8z"/>
<path d="M942 3980 c-14 -22 -16 -70 -4 -70 5 0 13 20 19 45 11 48 6 57 -15
25z"/>
<path d="M1050 3950 c0 -5 5 -10 10 -10 6 0 10 5 10 10 0 6 -4 10 -10 10 -5 0
-10 -4 -10 -10z"/>
<path d="M1000 3940 c0 -5 5 -10 10 -10 6 0 10 5 10 10 0 6 -4 10 -10 10 -5 0
-10 -4 -10 -10z"/>
<path d="M1040 3919 c0 -5 5 -7 10 -4 6 3 10 8 10 11 0 2 -4 4 -10 4 -5 0 -10
-5 -10 -11z"/>
<path d="M1046 3849 c-3 -18 -5 -46 -5 -63 1 -23 3 -25 6 -8 2 12 8 22 13 22
10 0 11 68 0 75 -4 3 -10 -9 -14 -26z"/>
<path d="M959 3747 c5 -5 26 -7 47 -5 l39 3 -47 5 c-26 3 -43 1 -39 -3z"/>
<path d="M130 3720 c0 -5 5 -10 11 -10 5 0 7 5 4 10 -3 6 -8 10 -11 10 -2 0
-4 -4 -4 -10z"/>
<path d="M144 3679 c-3 -6 -1 -16 5 -22 8 -8 11 -5 11 11 0 24 -5 28 -16 11z"/>
<path d="M1090 3599 c0 -5 5 -7 10 -4 6 3 10 8 10 11 0 2 -4 4 -10 4 -5 0 -10
-5 -10 -11z"/>
<path d="M1110 3571 c0 -6 4 -13 10 -16 6 -3 7 1 4 9 -7 18 -14 21 -14 7z"/>
<path d="M3159 3280 c-60 -10 -83 -24 -164 -99 -11 -10 -30 -23 -42 -30 -13
-6 -23 -18 -23 -25 0 -7 -16 -30 -35 -50 -31 -33 -35 -44 -35 -90 0 -35 -8
-69 -25 -104 -14 -29 -25 -56 -25 -61 0 -22 97 -30 118 -9 18 18 57 -5 87 -52
35 -56 78 -72 198 -74 l98 -1 59 61 c36 39 61 74 65 95 4 19 13 41 19 49 30
37 48 73 35 68 -10 -4 -14 3 -15 23 -1 16 3 29 7 29 5 0 9 -5 9 -12 0 -8 3 -9
11 -1 11 11 2 63 -12 63 -5 0 -9 -5 -9 -11 0 -5 -4 -8 -9 -5 -5 3 -9 21 -8 38
1 53 -60 138 -119 166 -27 13 -57 27 -66 33 -20 10 -53 10 -119 -1z m129 -207
c-2 -13 -14 -18 -43 -19 -41 -2 -69 11 -59 27 3 5 28 9 55 9 43 0 50 -3 47
-17z"/>
<path d="M1641 3210 c-13 -11 -32 -20 -42 -20 -12 0 -19 -7 -19 -19 0 -11 -8
-22 -18 -25 -9 -3 -23 -20 -31 -37 -7 -16 -21 -38 -31 -47 -21 -20 -64 -167
-54 -184 4 -6 3 -8 -3 -5 -6 4 -14 0 -17 -9 -10 -25 -7 -74 4 -74 6 0 10 -8
10 -17 1 -11 6 -6 14 12 23 54 91 83 85 37 -5 -32 19 -114 50 -172 8 -16 88
-60 109 -60 6 0 12 5 12 10 0 6 8 10 18 10 31 0 116 48 154 87 27 29 43 59 62
124 30 98 32 131 11 153 -8 8 -15 22 -15 30 0 9 -3 16 -7 16 -5 0 -17 18 -27
40 -29 60 -102 127 -164 150 -65 24 -71 24 -101 0z m194 -242 c29 -13 33 -28
8 -28 -29 1 -72 40 -43 40 5 0 21 -5 35 -12z m-355 -108 c0 -5 -4 -10 -10 -10
-5 0 -10 5 -10 10 0 6 5 10 10 10 6 0 10 -4 10 -10z m-39 -41 c-5 -13 -10 -19
-10 -12 -1 15 10 45 15 40 3 -2 0 -15 -5 -28z"/>
<path d="M1 1846 l-1 -1009 40 7 c22 3 54 13 72 20 67 29 194 63 223 60 17 -1
46 -8 65 -13 29 -9 37 -8 48 6 6 9 12 20 12 25 0 4 41 8 90 8 52 0 90 -4 90
-10 0 -5 -13 -7 -31 -3 -25 5 -31 3 -27 -8 4 -10 21 -13 68 -11 43 2 66 -1 72
-10 7 -10 9 -10 5 2 -2 8 -16 16 -30 18 -50 6 -27 20 46 28 39 4 87 6 105 5
35 -2 44 14 12 24 -11 3 -20 15 -20 25 0 34 89 62 156 49 5 -1 24 -1 41 0 26
1 34 6 39 27 5 20 1 31 -19 49 -22 22 -33 24 -105 22 -44 -1 -78 1 -75 6 2 4
-6 7 -19 7 -13 0 -31 7 -40 14 -20 14 -24 36 -8 36 5 0 49 7 97 15 49 8 105
16 126 18 21 3 40 7 43 10 11 11 -61 47 -92 47 -23 0 -33 5 -37 19 -3 12 1 22
9 25 8 3 14 1 14 -5 0 -9 44 -3 65 10 6 3 17 6 25 6 26 0 17 30 -9 30 -14 0
-26 6 -29 13 -2 6 -12 12 -22 12 -10 0 -21 4 -24 9 -3 4 -17 7 -30 6 -22 -3
-210 8 -356 20 -25 2 -114 7 -197 11 -172 8 -169 6 -194 95 -15 53 -13 68 11
93 16 17 31 18 137 15 65 -2 234 -3 375 -4 l256 0 26 24 c24 23 25 25 9 54
-11 22 -12 32 -4 35 18 6 13 20 -12 28 -12 4 -24 6 -26 5 -2 -2 -8 3 -13 11
-7 10 -11 10 -15 1 -6 -16 -63 -17 -63 -2 0 5 -4 8 -10 4 -5 -3 -18 3 -30 15
l-20 20 28 1 c15 1 30 1 35 0 4 0 7 4 7 9 0 6 9 10 19 10 11 0 23 9 26 20 4
12 11 17 18 14 9 -5 9 -4 0 6 -6 6 -43 16 -83 20 -40 4 -77 13 -83 19 -13 13
-83 15 -91 2 -9 -13 -89 0 -101 16 -6 8 -30 17 -53 20 -23 3 -39 10 -36 15 4
6 -5 8 -22 5 -89 -17 -123 -17 -165 -1 -24 9 -48 22 -54 29 -5 6 -17 12 -25
13 -42 2 -101 11 -111 17 -6 4 -9 19 -6 34 7 31 -9 147 -29 214 -8 26 -16 78
-19 115 -2 37 -11 94 -21 127 -9 33 -20 92 -25 130 -5 39 -13 90 -18 115 -5
26 -9 -375 -10 -964z m800 -23 c-12 -20 -14 -14 -5 12 4 9 9 14 11 11 3 -2 0
-13 -6 -23z m-21 13 c0 -3 -4 -8 -10 -11 -5 -3 -10 -1 -10 4 0 6 5 11 10 11 6
0 10 -2 10 -4z m-670 -175 c0 -9 -7 -26 -15 -37 -8 -12 -12 -24 -10 -28 3 -3
1 -3 -4 1 -13 12 -23 63 -11 63 5 0 10 7 10 15 0 9 6 12 15 9 8 -4 15 -14 15
-23z m578 -315 c11 -12 -34 -35 -68 -36 -36 0 -60 14 -60 35 0 12 116 12 128
1z m-279 -119 c8 -10 6 -19 -9 -35 -21 -23 -45 -21 -54 5 -13 34 39 58 63 30z
m161 -167 c0 -5 -12 -10 -27 -9 -25 0 -26 1 -8 9 27 12 35 12 35 0z m40 0 c0
-5 -4 -10 -10 -10 -5 0 -10 5 -10 10 0 6 5 10 10 10 6 0 10 -4 10 -10z m40 -4
c0 -3 -4 -8 -10 -11 -5 -3 -10 -1 -10 4 0 6 5 11 10 11 6 0 10 -2 10 -4z m-97
-23 c-7 -2 -21 -2 -30 0 -10 3 -4 5 12 5 17 0 24 -2 18 -5z"/>
<path d="M4508 2799 c-24 -6 -25 -9 -12 -97 5 -33 13 -46 36 -60 22 -12 28
-23 25 -39 -2 -12 0 -20 4 -17 5 3 9 -3 10 -13 0 -16 1 -16 8 1 6 15 10 16 15
7 5 -8 1 -20 -9 -29 -13 -13 -19 -14 -22 -4 -8 20 -23 14 -23 -10 0 -12 -5
-36 -12 -54 -10 -28 -9 -36 6 -53 13 -15 14 -20 4 -24 -8 -4 -7 -6 5 -6 12 -1
17 -9 17 -30 0 -17 6 -31 16 -35 14 -6 14 -9 -6 -26 -13 -11 -29 -20 -36 -20
-26 0 -24 -21 3 -45 28 -24 28 -24 5 -25 -14 0 -21 -4 -17 -11 4 -6 12 -8 19
-6 6 3 20 -7 30 -21 l19 -25 -26 7 c-20 5 -33 0 -54 -20 -26 -23 -26 -25 -6
-21 12 3 24 0 27 -7 3 -8 7 -7 14 2 7 11 11 11 19 0 15 -20 23 -48 14 -48 -10
0 -22 -34 -26 -72 -2 -16 2 -26 9 -25 21 4 11 -147 -11 -165 -15 -12 -17 -48
-3 -48 6 0 10 -6 10 -14 0 -8 6 -16 13 -19 10 -4 10 -7 0 -18 -7 -7 -13 -21
-13 -31 0 -10 -5 -18 -11 -18 -7 0 -9 -12 -5 -34 4 -19 0 -58 -8 -90 -13 -50
-13 -60 1 -94 9 -20 16 -41 15 -46 -2 -4 2 -14 8 -21 8 -10 4 -14 -15 -19 -33
-8 -32 -24 2 -28 27 -3 34 -17 48 -87 2 -13 10 -28 17 -33 10 -8 10 -11 1 -15
-18 -7 -16 -43 2 -43 9 0 18 -7 21 -15 4 -8 10 -13 14 -10 14 9 22 -35 10 -50
-14 -17 5 -82 29 -102 7 -7 15 -25 16 -40 1 -15 3 -33 3 -40 1 -6 19 -22 40
-34 20 -13 40 -28 44 -33 4 -6 8 437 8 985 l0 996 -134 -1 c-74 -1 -145 -4
-158 -7z m109 -211 c-3 -8 -6 -5 -6 6 -1 11 2 17 5 13 3 -3 4 -12 1 -19z"/>
<path d="M1445 2701 c-11 -50 28 -121 81 -148 22 -12 94 -5 94 8 0 5 -4 9 -9
9 -14 0 -110 101 -117 124 -6 20 -22 36 -36 36 -3 0 -9 -13 -13 -29z"/>
<path d="M2180 2618 c-14 -5 -43 -13 -65 -17 -34 -6 -40 -10 -40 -31 l0 -25
160 -1 c209 -1 197 1 268 -35 19 -10 23 1 6 18 -8 8 -8 13 0 18 14 8 -20 36
-66 54 -18 8 -33 18 -33 23 0 11 -198 8 -230 -4z"/>
<path d="M2476 2469 c-8 -13 -21 -19 -29 -16 -21 8 -88 -14 -80 -26 4 -6 -4
-7 -19 -4 -32 8 -61 -18 -37 -35 10 -7 5 -8 -20 -4 -28 5 -32 3 -27 -10 5 -13
2 -15 -14 -11 -13 3 -20 0 -20 -10 0 -8 5 -11 10 -8 6 3 15 3 22 -1 8 -5 6
-10 -7 -14 -22 -8 -45 9 -38 27 7 17 -19 41 -36 35 -8 -3 -11 0 -7 6 4 7 -4
14 -21 17 -15 3 -45 14 -67 25 -27 14 -43 17 -56 10 -30 -16 -13 -50 66 -130
136 -138 162 -168 169 -191 4 -13 12 -30 17 -36 7 -9 3 -16 -15 -24 -22 -10
-38 -43 -41 -86 -2 -16 -16 -29 -16 -15 0 7 -5 12 -11 12 -6 0 -8 -9 -4 -22 4
-17 4 -19 -3 -9 -8 11 -12 10 -21 -7 -7 -13 -17 -19 -27 -15 -9 3 -14 0 -12
-8 2 -8 -7 -14 -24 -14 -26 -1 -54 -15 -29 -15 7 0 10 -4 6 -10 -3 -5 -12 -7
-20 -3 -9 3 -15 -1 -15 -11 0 -9 -8 -16 -19 -16 -23 0 -37 -16 -20 -22 8 -3 7
-12 -5 -31 -19 -29 -14 -47 12 -46 14 0 13 2 -3 9 -17 7 -15 9 13 9 24 1 35 7
41 23 8 23 81 50 139 51 22 0 32 5 33 16 0 11 2 12 6 4 2 -7 12 -13 21 -13 14
0 14 -2 3 -9 -9 -6 -3 -8 19 -6 18 1 36 8 40 15 5 8 10 8 14 2 3 -6 15 -8 26
-5 22 6 28 -12 8 -20 -8 -3 -6 -6 5 -6 9 -1 17 5 17 12 0 8 3 8 8 2 4 -6 24
-16 45 -22 30 -9 37 -9 37 3 0 15 12 18 24 7 4 -5 13 -8 19 -8 7 0 11 -8 11
-17 -1 -12 12 -20 50 -28 28 -7 59 -14 69 -17 9 -2 17 0 17 6 0 6 -10 11 -22
12 -13 0 -32 4 -43 9 -12 4 7 6 45 2 36 -3 67 -9 68 -13 2 -5 10 -9 18 -9 8 0
11 6 7 16 -5 13 -2 15 14 10 32 -10 40 24 11 46 -29 23 -78 48 -92 48 -15 0
-100 43 -104 53 -2 4 -14 7 -27 7 -13 0 -25 4 -27 9 -1 4 -14 11 -28 15 -19 6
-21 5 -10 -3 8 -6 10 -11 5 -11 -17 0 -85 50 -85 63 0 7 -4 6 -10 -3 -8 -13
-10 -12 -10 3 0 9 -4 17 -10 17 -5 0 -10 9 -10 20 0 11 -7 20 -15 20 -8 0 -12
6 -9 13 6 17 -21 69 -31 59 -5 -4 -5 1 -2 10 3 9 1 19 -6 22 -9 3 -8 7 2 14 9
7 10 12 2 16 -6 4 -11 14 -11 22 0 8 5 12 10 9 17 -10 11 27 -7 47 -9 10 -13
21 -8 26 4 4 10 1 12 -6 5 -13 23 -7 23 9 0 6 -4 8 -8 5 -4 -2 -14 -1 -22 5
-11 6 -6 9 19 9 19 0 31 3 28 7 -4 3 -20 6 -37 5 -16 0 -30 4 -30 9 0 7 21 8
55 5 34 -4 55 -2 55 4 0 5 3 9 8 8 27 -8 96 57 89 84 -3 10 2 22 11 28 10 5
12 10 5 10 -6 0 -19 -10 -27 -21z m-136 -53 c0 -3 -4 -8 -10 -11 -5 -3 -10 -1
-10 4 0 6 5 11 10 11 6 0 10 -2 10 -4z m-140 -52 c0 -8 -4 -12 -10 -9 -5 3
-10 10 -10 16 0 5 5 9 10 9 6 0 10 -7 10 -16z m65 -344 c-3 -5 -11 -10 -16
-10 -6 0 -7 5 -4 10 3 6 11 10 16 10 6 0 7 -4 4 -10z m-130 -160 c3 -5 -1 -10
-9 -10 -9 0 -16 5 -16 10 0 6 4 10 9 10 6 0 13 -4 16 -10z"/>
<path d="M4530 2360 c0 -5 5 -10 10 -10 6 0 10 5 10 10 0 6 -4 10 -10 10 -5 0
-10 -4 -10 -10z"/>
<path d="M320 2040 c0 -5 7 -10 16 -10 8 0 12 5 9 10 -3 6 -10 10 -16 10 -5 0
-9 -4 -9 -10z"/>
<path d="M568 2003 c7 -3 16 -2 19 1 4 3 -2 6 -13 5 -11 0 -14 -3 -6 -6z"/>
<path d="M2180 1829 c0 -5 5 -7 10 -4 6 3 10 8 10 11 0 2 -4 4 -10 4 -5 0 -10
-5 -10 -11z"/>
<path d="M2080 1800 c0 -5 7 -10 16 -10 8 0 12 5 9 10 -3 6 -10 10 -16 10 -5
0 -9 -4 -9 -10z"/>
<path d="M2698 1763 c7 -3 16 -2 19 1 4 3 -2 6 -13 5 -11 0 -14 -3 -6 -6z"/>
<path d="M876 955 c-11 -8 -16 -18 -12 -22 4 -4 11 -1 16 7 5 8 30 17 57 21
l48 6 -45 1 c-25 1 -53 -5 -64 -13z"/>
<path d="M786 942 c-3 -6 -1 -14 5 -17 15 -10 25 3 12 16 -7 7 -13 7 -17 1z"/>
<path d="M620 900 c-46 -5 -46 -12 1 -24 18 -4 31 -1 39 9 17 20 13 21 -40 15z"/>
</g>
</svg>
